<?xml version="1.0" encoding="utf-8"?>
<!-- Generator: Adobe Illustrator 19.0.0, SVG Export Plug-In . SVG Version: 6.00 Build 0)  -->
<svg version="1.1" id="Layer_1" xmlns="http://www.w3.org/2000/svg" xmlns:xlink="http://www.w3.org/1999/xlink" x="0px" y="0px"
	 viewBox="0 0 3000 3000" style="enable-background:new 0 0 3000 3000;" xml:space="preserve">
<style type="text/css">
	.st0{fill:#E11F26;}
	.st1{fill:#E11F26;stroke:#E11F26;stroke-miterlimit:10;}
	.st2{fill:#333433;}
</style>
<polygon id="XMLID_410_" class="st0" points="0,189 570.7,189 570.7,1379.8 1303.2,189 1993.2,189 1286.2,1379.8 2103.9,2736.3 
	1405.4,2736.3 885.9,1856.2 596.2,2280.7 579.2,2736.3 0,2736.3 "/>
<polygon id="XMLID_393_" class="st1" points="-3020,189 -2451.7,189 -2451.7,1403.2 -1722.2,189 -1035.2,189 -1739.2,1403.2 
	-924.9,2786.3 -1620.4,2786.3 -2137.9,1888.9 -2426.3,2321.7 -2443.2,2786.3 -3020,2786.3 "/>
<polygon id="XMLID_441_" class="st2" points="-20,192.9 -917.1,189 -1621.1,1403.2 -806.8,2786.3 -20,2790.2 -20,2220 -851.3,2220 
	-851.3,1766 -130.3,1766 -138.8,1164.2 -851.3,1164.2 -842.8,805.3 -20,805.3 "/>
<polygon id="XMLID_409_" class="st2" points="3000,206.9 2099.2,203.1 1392.2,1393.9 2209.9,2750.4 3000,2754.2 3000,2195 
	2165.3,2195 2165.3,1749.8 2889.3,1749.8 2880.8,1159.5 2165.3,1159.5 2173.8,807.5 3000,807.5 "/>
</svg>
